<svg aria-hidden="true" style="position: absolute; width: 0; height: 0; overflow: hidden;" version="1.1" xmlns="http://www.w3.org/2000/svg" xmlns:xlink="http://www.w3.org/1999/xlink">
<defs>
<symbol id="icon-cross" viewBox="0 0 32 32">
<path fill="#fff" style="fill: var(--color1, #fff)" d="M5.21 5.21c0.409-0.409 0.964-0.639 1.543-0.639s1.134 0.23 1.543 0.639l7.717 7.717 7.717-7.717c0.412-0.398 0.963-0.617 1.535-0.613s1.12 0.234 1.524 0.639c0.405 0.405 0.634 0.952 0.639 1.524s-0.215 1.123-0.612 1.535l-7.717 7.717 7.717 7.717c0.398 0.412 0.617 0.963 0.612 1.535s-0.235 1.12-0.639 1.524c-0.405 0.405-0.952 0.634-1.524 0.639s-1.123-0.215-1.535-0.612l-7.717-7.717-7.717 7.717c-0.412 0.398-0.963 0.617-1.535 0.612s-1.12-0.235-1.524-0.639c-0.405-0.405-0.634-0.952-0.639-1.524s0.215-1.123 0.613-1.535l7.717-7.717-7.717-7.717c-0.409-0.409-0.639-0.964-0.639-1.543s0.23-1.134 0.639-1.543z"></path>
</symbol>
<symbol id="icon-burger" viewBox="0 0 32 32">
<path fill="#fff" style="fill: var(--color1, #fff)" d="M26.666 23.333c0.514 0 1.007 0.198 1.379 0.553s0.593 0.838 0.617 1.351-0.149 1.016-0.485 1.404c-0.336 0.388-0.809 0.633-1.32 0.682l-0.192 0.009h-21.333c-0.514-0-1.007-0.198-1.379-0.553s-0.593-0.838-0.618-1.351c-0.025-0.513 0.149-1.016 0.485-1.404s0.809-0.633 1.32-0.682l0.192-0.009h21.333zM26.666 14c0.53 0 1.039 0.211 1.414 0.586s0.586 0.884 0.586 1.414c0 0.53-0.211 1.039-0.586 1.414s-0.884 0.586-1.414 0.586h-21.333c-0.53 0-1.039-0.211-1.414-0.586s-0.586-0.884-0.586-1.414 0.211-1.039 0.586-1.414c0.375-0.375 0.884-0.586 1.414-0.586h21.333zM26.666 4.667c0.53 0 1.039 0.211 1.414 0.586s0.586 0.884 0.586 1.414c0 0.53-0.211 1.039-0.586 1.414s-0.884 0.586-1.414 0.586h-21.333c-0.53 0-1.039-0.211-1.414-0.586s-0.586-0.884-0.586-1.414c0-0.53 0.211-1.039 0.586-1.414s0.884-0.586 1.414-0.586h21.333z"></path>
</symbol>
<symbol id="icon-cross1" viewBox="0 0 32 32">
<path d="M8.533 25.333l-1.867-1.867 7.467-7.467-7.467-7.467 1.867-1.867 7.467 7.467 7.467-7.467 1.867 1.867-7.467 7.467 7.467 7.467-1.867 1.867-7.467-7.467-7.467 7.467z"></path>
</symbol>
</defs>
</svg>
